<svg version="1.1" xmlns="http://www.w3.org/2000/svg" xmlns:xlink="http://www.w3.org/1999/xlink" width="1645" height="809"><defs/><g><g><rect fill="#C0C0C0" stroke="none" x="655" y="239" width="107.4873046875" height="45" transform="matrix(1 0 0 1 -230 -46)" fill-opacity="0.2"/></g><g><rect fill="#A8F759" stroke="none" x="648" y="232" width="107.4873046875" height="45" transform="matrix(1 0 0 1 -230 -46)"/></g><g><path fill="none" stroke="#000000" paint-order="fill stroke markers" d=" M 418 186 L 525.4873046875 186 L 525.4873046875 231 L 418 231 L 418 186 Z Z" stroke-miterlimit="10" stroke-dasharray=""/></g><g><path fill="none" stroke="#000000" paint-order="fill stroke markers" d=" M 418 211 L 525.4873046875 211" stroke-miterlimit="10" stroke-dasharray=""/></g><g><path fill="none" stroke="#000000" paint-order="fill stroke markers" d=" M 418 221 L 525.4873046875 221" stroke-miterlimit="10" stroke-dasharray=""/></g><g><g><path fill="none" stroke="none"/><text fill="#000000" stroke="none" font-family="Arial" font-size="13px" font-style="normal" font-weight="bold" text-decoration="undefined" x="702.24365234375" y="245.5" text-anchor="middle" dominant-baseline="central" transform="matrix(1 0 0 1 -230 -46)">LoginController</text></g></g><g><rect fill="#C0C0C0" stroke="none" x="663" y="551" width="121.2236328125" height="45" transform="matrix(1 0 0 1 -230 -46)" fill-opacity="0.2"/></g><g><rect fill="#A8F759" stroke="none" x="656" y="544" width="121.2236328125" height="45" transform="matrix(1 0 0 1 -230 -46)"/></g><g><path fill="none" stroke="#000000" paint-order="fill stroke markers" d=" M 426 498 L 547.2236328125 498 L 547.2236328125 543 L 426 543 L 426 498 Z Z" stroke-miterlimit="10" stroke-dasharray=""/></g><g><path fill="none" stroke="#000000" paint-order="fill stroke markers" d=" M 426 523 L 547.2236328125 523" stroke-miterlimit="10" stroke-dasharray=""/></g><g><path fill="none" stroke="#000000" paint-order="fill stroke markers" d=" M 426 533 L 547.2236328125 533" stroke-miterlimit="10" stroke-dasharray=""/></g><g><g><path fill="none" stroke="none"/><text fill="#000000" stroke="none" font-family="Arial" font-size="13px" font-style="normal" font-weight="bold" text-decoration="undefined" x="717.11181640625" y="557.5" text-anchor="middle" dominant-baseline="central" transform="matrix(1 0 0 1 -230 -46)">ProductController</text></g></g><g><rect fill="#C0C0C0" stroke="none" x="679" y="415" width="101.01904296875" height="45" transform="matrix(1 0 0 1 -230 -46)" fill-opacity="0.2"/></g><g><rect fill="#A8F759" stroke="none" x="672" y="408" width="101.01904296875" height="45" transform="matrix(1 0 0 1 -230 -46)"/></g><g><path fill="none" stroke="#000000" paint-order="fill stroke markers" d=" M 442 362 L 543.01904296875 362 L 543.01904296875 407 L 442 407 L 442 362 Z Z" stroke-miterlimit="10" stroke-dasharray=""/></g><g><path fill="none" stroke="#000000" paint-order="fill stroke markers" d=" M 442 387 L 543.01904296875 387" stroke-miterlimit="10" stroke-dasharray=""/></g><g><path fill="none" stroke="#000000" paint-order="fill stroke markers" d=" M 442 397 L 543.01904296875 397" stroke-miterlimit="10" stroke-dasharray=""/></g><g><g><path fill="none" stroke="none"/><text fill="#000000" stroke="none" font-family="Arial" font-size="13px" font-style="normal" font-weight="bold" text-decoration="undefined" x="723.009521484375" y="421.5" text-anchor="middle" dominant-baseline="central" transform="matrix(1 0 0 1 -230 -46)">UserController</text></g></g><g><rect fill="#C0C0C0" stroke="none" x="399" y="247" width="51.919921875" height="45" transform="matrix(1 0 0 1 -230 -46)" fill-opacity="0.2"/></g><g><rect fill="#FB4CFB" stroke="none" x="392" y="240" width="51.919921875" height="45" transform="matrix(1 0 0 1 -230 -46)"/></g><g><path fill="none" stroke="#000000" paint-order="fill stroke markers" d=" M 162 194 L 213.919921875 194 L 213.919921875 239 L 162 239 L 162 194 Z Z" stroke-miterlimit="10" stroke-dasharray=""/></g><g><path fill="none" stroke="#000000" paint-order="fill stroke markers" d=" M 162 219 L 213.919921875 219" stroke-miterlimit="10" stroke-dasharray=""/></g><g><path fill="none" stroke="#000000" paint-order="fill stroke markers" d=" M 162 229 L 213.919921875 229" stroke-miterlimit="10" stroke-dasharray=""/></g><g><g><path fill="none" stroke="none"/><text fill="#000000" stroke="none" font-family="Arial" font-size="13px" font-style="normal" font-weight="bold" text-decoration="undefined" x="418.4599609375" y="253.5" text-anchor="middle" dominant-baseline="central" transform="matrix(1 0 0 1 -230 -46)">View</text></g></g><g><rect fill="#C0C0C0" stroke="none" x="399" y="407" width="51.919921875" height="45" transform="matrix(1 0 0 1 -230 -46)" fill-opacity="0.2"/></g><g><rect fill="#FB4CFB" stroke="none" x="392" y="400" width="51.919921875" height="45" transform="matrix(1 0 0 1 -230 -46)"/></g><g><path fill="none" stroke="#000000" paint-order="fill stroke markers" d=" M 162 354 L 213.919921875 354 L 213.919921875 399 L 162 399 L 162 354 Z Z" stroke-miterlimit="10" stroke-dasharray=""/></g><g><path fill="none" stroke="#000000" paint-order="fill stroke markers" d=" M 162 379 L 213.919921875 379" stroke-miterlimit="10" stroke-dasharray=""/></g><g><path fill="none" stroke="#000000" paint-order="fill stroke markers" d=" M 162 389 L 213.919921875 389" stroke-miterlimit="10" stroke-dasharray=""/></g><g><g><path fill="none" stroke="none"/><text fill="#000000" stroke="none" font-family="Arial" font-size="13px" font-style="normal" font-weight="bold" text-decoration="undefined" x="418.4599609375" y="413.5" text-anchor="middle" dominant-baseline="central" transform="matrix(1 0 0 1 -230 -46)">View</text></g></g><g><rect fill="#C0C0C0" stroke="none" x="399" y="543" width="51.919921875" height="45" transform="matrix(1 0 0 1 -230 -46)" fill-opacity="0.2"/></g><g><rect fill="#FB4CFB" stroke="none" x="392" y="536" width="51.919921875" height="45" transform="matrix(1 0 0 1 -230 -46)"/></g><g><path fill="none" stroke="#000000" paint-order="fill stroke markers" d=" M 162 490 L 213.919921875 490 L 213.919921875 535 L 162 535 L 162 490 Z Z" stroke-miterlimit="10" stroke-dasharray=""/></g><g><path fill="none" stroke="#000000" paint-order="fill stroke markers" d=" M 162 515 L 213.919921875 515" stroke-miterlimit="10" stroke-dasharray=""/></g><g><path fill="none" stroke="#000000" paint-order="fill stroke markers" d=" M 162 525 L 213.919921875 525" stroke-miterlimit="10" stroke-dasharray=""/></g><g><g><path fill="none" stroke="none"/><text fill="#000000" stroke="none" font-family="Arial" font-size="13px" font-style="normal" font-weight="bold" text-decoration="undefined" x="418.4599609375" y="549.5" text-anchor="middle" dominant-baseline="central" transform="matrix(1 0 0 1 -230 -46)">View</text></g></g><g><rect fill="#C0C0C0" stroke="none" x="1391" y="247" width="106.80810546875" height="45" transform="matrix(1 0 0 1 -230 -46)" fill-opacity="0.2"/></g><g><rect fill="#38BCFF" stroke="none" x="1384" y="240" width="106.80810546875" height="45" transform="matrix(1 0 0 1 -230 -46)"/></g><g><path fill="none" stroke="#000000" paint-order="fill stroke markers" d=" M 1154 194 L 1260.80810546875 194 L 1260.80810546875 239 L 1154 239 L 1154 194 Z Z" stroke-miterlimit="10" stroke-dasharray=""/></g><g><path fill="none" stroke="#000000" paint-order="fill stroke markers" d=" M 1154 219 L 1260.80810546875 219" stroke-miterlimit="10" stroke-dasharray=""/></g><g><path fill="none" stroke="#000000" paint-order="fill stroke markers" d=" M 1154 229 L 1260.80810546875 229" stroke-miterlimit="10" stroke-dasharray=""/></g><g><g><path fill="none" stroke="none"/><text fill="#000000" stroke="none" font-family="Arial" font-size="13px" font-style="normal" font-weight="bold" text-decoration="undefined" x="1437.904052734375" y="253.5" text-anchor="middle" dominant-baseline="central" transform="matrix(1 0 0 1 -230 -46)">UserRepository</text></g></g><g><rect fill="#C0C0C0" stroke="none" x="1383" y="351" width="127.0126953125" height="45" transform="matrix(1 0 0 1 -230 -46)" fill-opacity="0.2"/></g><g><rect fill="#38BCFF" stroke="none" x="1376" y="344" width="127.0126953125" height="45" transform="matrix(1 0 0 1 -230 -46)"/></g><g><path fill="none" stroke="#000000" paint-order="fill stroke markers" d=" M 1146 298 L 1273.0126953125 298 L 1273.0126953125 343 L 1146 343 L 1146 298 Z Z" stroke-miterlimit="10" stroke-dasharray=""/></g><g><path fill="none" stroke="#000000" paint-order="fill stroke markers" d=" M 1146 323 L 1273.0126953125 323" stroke-miterlimit="10" stroke-dasharray=""/></g><g><path fill="none" stroke="#000000" paint-order="fill stroke markers" d=" M 1146 333 L 1273.0126953125 333" stroke-miterlimit="10" stroke-dasharray=""/></g><g><g><path fill="none" stroke="none"/><text fill="#000000" stroke="none" font-family="Arial" font-size="13px" font-style="normal" font-weight="bold" text-decoration="undefined" x="1440.00634765625" y="357.5" text-anchor="middle" dominant-baseline="central" transform="matrix(1 0 0 1 -230 -46)">ProductRepository</text></g></g><g><rect fill="#C0C0C0" stroke="none" x="1367" y="471" width="150.8671875" height="45" transform="matrix(1 0 0 1 -230 -46)" fill-opacity="0.2"/></g><g><rect fill="#38BCFF" stroke="none" x="1360" y="464" width="150.8671875" height="45" transform="matrix(1 0 0 1 -230 -46)"/></g><g><path fill="none" stroke="#000000" paint-order="fill stroke markers" d=" M 1130 418 L 1280.8671875 418 L 1280.8671875 463 L 1130 463 L 1130 418 Z Z" stroke-miterlimit="10" stroke-dasharray=""/></g><g><path fill="none" stroke="#000000" paint-order="fill stroke markers" d=" M 1130 443 L 1280.8671875 443" stroke-miterlimit="10" stroke-dasharray=""/></g><g><path fill="none" stroke="#000000" paint-order="fill stroke markers" d=" M 1130 453 L 1280.8671875 453" stroke-miterlimit="10" stroke-dasharray=""/></g><g><g><path fill="none" stroke="none"/><text fill="#000000" stroke="none" font-family="Arial" font-size="13px" font-style="normal" font-weight="bold" text-decoration="undefined" x="1435.93359375" y="477.5" text-anchor="middle" dominant-baseline="central" transform="matrix(1 0 0 1 -230 -46)">TransactionRepository</text></g></g><g><rect fill="#C0C0C0" stroke="none" x="1383" y="583" width="118.341796875" height="45" transform="matrix(1 0 0 1 -230 -46)" fill-opacity="0.2"/></g><g><rect fill="#38BCFF" stroke="none" x="1376" y="576" width="118.341796875" height="45" transform="matrix(1 0 0 1 -230 -46)"/></g><g><path fill="none" stroke="#000000" paint-order="fill stroke markers" d=" M 1146 530 L 1264.341796875 530 L 1264.341796875 575 L 1146 575 L 1146 530 Z Z" stroke-miterlimit="10" stroke-dasharray=""/></g><g><path fill="none" stroke="#000000" paint-order="fill stroke markers" d=" M 1146 555 L 1264.341796875 555" stroke-miterlimit="10" stroke-dasharray=""/></g><g><path fill="none" stroke="#000000" paint-order="fill stroke markers" d=" M 1146 565 L 1264.341796875 565" stroke-miterlimit="10" stroke-dasharray=""/></g><g><g><path fill="none" stroke="none"/><text fill="#000000" stroke="none" font-family="Arial" font-size="13px" font-style="normal" font-weight="bold" text-decoration="undefined" x="1435.6708984375" y="589.5" text-anchor="middle" dominant-baseline="central" transform="matrix(1 0 0 1 -230 -46)">RatingRepository</text></g></g><g><rect fill="#C0C0C0" stroke="none" x="1399" y="679" width="108.9599609375" height="45" transform="matrix(1 0 0 1 -230 -46)" fill-opacity="0.2"/></g><g><rect fill="#38BCFF" stroke="none" x="1392" y="672" width="108.9599609375" height="45" transform="matrix(1 0 0 1 -230 -46)"/></g><g><path fill="none" stroke="#000000" paint-order="fill stroke markers" d=" M 1162 626 L 1270.9599609375 626 L 1270.9599609375 671 L 1162 671 L 1162 626 Z Z" stroke-miterlimit="10" stroke-dasharray=""/></g><g><path fill="none" stroke="#000000" paint-order="fill stroke markers" d=" M 1162 651 L 1270.9599609375 651" stroke-miterlimit="10" stroke-dasharray=""/></g><g><path fill="none" stroke="#000000" paint-order="fill stroke markers" d=" M 1162 661 L 1270.9599609375 661" stroke-miterlimit="10" stroke-dasharray=""/></g><g><g><path fill="none" stroke="none"/><text fill="#000000" stroke="none" font-family="Arial" font-size="13px" font-style="normal" font-weight="bold" text-decoration="undefined" x="1446.97998046875" y="685.5" text-anchor="middle" dominant-baseline="central" transform="matrix(1 0 0 1 -230 -46)">OfferRepository</text></g></g><g><rect fill="#C0C0C0" stroke="none" x="1007" y="247" width="85.1689453125" height="45" transform="matrix(1 0 0 1 -230 -46)" fill-opacity="0.2"/></g><g><rect fill="#FB7575" stroke="none" x="1000" y="240" width="85.1689453125" height="45" transform="matrix(1 0 0 1 -230 -46)"/></g><g><path fill="none" stroke="#000000" paint-order="fill stroke markers" d=" M 770 194 L 855.1689453125 194 L 855.1689453125 239 L 770 239 L 770 194 Z Z" stroke-miterlimit="10" stroke-dasharray=""/></g><g><path fill="none" stroke="#000000" paint-order="fill stroke markers" d=" M 770 219 L 855.1689453125 219" stroke-miterlimit="10" stroke-dasharray=""/></g><g><path fill="none" stroke="#000000" paint-order="fill stroke markers" d=" M 770 229 L 855.1689453125 229" stroke-miterlimit="10" stroke-dasharray=""/></g><g><g><path fill="none" stroke="none"/><text fill="#000000" stroke="none" font-family="Arial" font-size="13px" font-style="normal" font-weight="bold" text-decoration="undefined" x="1043.08447265625" y="253.5" text-anchor="middle" dominant-baseline="central" transform="matrix(1 0 0 1 -230 -46)">UserService</text></g></g><g><rect fill="#C0C0C0" stroke="none" x="999" y="351" width="105.37353515625" height="45" transform="matrix(1 0 0 1 -230 -46)" fill-opacity="0.2"/></g><g><rect fill="#FB7575" stroke="none" x="992" y="344" width="105.37353515625" height="45" transform="matrix(1 0 0 1 -230 -46)"/></g><g><path fill="none" stroke="#000000" paint-order="fill stroke markers" d=" M 762 298 L 867.37353515625 298 L 867.37353515625 343 L 762 343 L 762 298 Z Z" stroke-miterlimit="10" stroke-dasharray=""/></g><g><path fill="none" stroke="#000000" paint-order="fill stroke markers" d=" M 762 323 L 867.37353515625 323" stroke-miterlimit="10" stroke-dasharray=""/></g><g><path fill="none" stroke="#000000" paint-order="fill stroke markers" d=" M 762 333 L 867.37353515625 333" stroke-miterlimit="10" stroke-dasharray=""/></g><g><g><path fill="none" stroke="none"/><text fill="#000000" stroke="none" font-family="Arial" font-size="13px" font-style="normal" font-weight="bold" text-decoration="undefined" x="1045.186767578125" y="357.5" text-anchor="middle" dominant-baseline="central" transform="matrix(1 0 0 1 -230 -46)">ProductService</text></g></g><g><rect fill="#C0C0C0" stroke="none" x="991" y="471" width="129.22802734375" height="45" transform="matrix(1 0 0 1 -230 -46)" fill-opacity="0.2"/></g><g><rect fill="#FB7575" stroke="none" x="984" y="464" width="129.22802734375" height="45" transform="matrix(1 0 0 1 -230 -46)"/></g><g><path fill="none" stroke="#000000" paint-order="fill stroke markers" d=" M 754 418 L 883.22802734375 418 L 883.22802734375 463 L 754 463 L 754 418 Z Z" stroke-miterlimit="10" stroke-dasharray=""/></g><g><path fill="none" stroke="#000000" paint-order="fill stroke markers" d=" M 754 443 L 883.22802734375 443" stroke-miterlimit="10" stroke-dasharray=""/></g><g><path fill="none" stroke="#000000" paint-order="fill stroke markers" d=" M 754 453 L 883.22802734375 453" stroke-miterlimit="10" stroke-dasharray=""/></g><g><g><path fill="none" stroke="none"/><text fill="#000000" stroke="none" font-family="Arial" font-size="13px" font-style="normal" font-weight="bold" text-decoration="undefined" x="1049.114013671875" y="477.5" text-anchor="middle" dominant-baseline="central" transform="matrix(1 0 0 1 -230 -46)">TransactionService</text></g></g><g><rect fill="#C0C0C0" stroke="none" x="999" y="583" width="96.70263671875" height="45" transform="matrix(1 0 0 1 -230 -46)" fill-opacity="0.2"/></g><g><rect fill="#FB7575" stroke="none" x="992" y="576" width="96.70263671875" height="45" transform="matrix(1 0 0 1 -230 -46)"/></g><g><path fill="none" stroke="#000000" paint-order="fill stroke markers" d=" M 762 530 L 858.70263671875 530 L 858.70263671875 575 L 762 575 L 762 530 Z Z" stroke-miterlimit="10" stroke-dasharray=""/></g><g><path fill="none" stroke="#000000" paint-order="fill stroke markers" d=" M 762 555 L 858.70263671875 555" stroke-miterlimit="10" stroke-dasharray=""/></g><g><path fill="none" stroke="#000000" paint-order="fill stroke markers" d=" M 762 565 L 858.70263671875 565" stroke-miterlimit="10" stroke-dasharray=""/></g><g><g><path fill="none" stroke="none"/><text fill="#000000" stroke="none" font-family="Arial" font-size="13px" font-style="normal" font-weight="bold" text-decoration="undefined" x="1040.851318359375" y="589.5" text-anchor="middle" dominant-baseline="central" transform="matrix(1 0 0 1 -230 -46)">RatingService</text></g></g><g><rect fill="#C0C0C0" stroke="none" x="1007" y="679" width="87.32080078125" height="45" transform="matrix(1 0 0 1 -230 -46)" fill-opacity="0.2"/></g><g><rect fill="#FB7575" stroke="none" x="1000" y="672" width="87.32080078125" height="45" transform="matrix(1 0 0 1 -230 -46)"/></g><g><path fill="none" stroke="#000000" paint-order="fill stroke markers" d=" M 770 626 L 857.32080078125 626 L 857.32080078125 671 L 770 671 L 770 626 Z Z" stroke-miterlimit="10" stroke-dasharray=""/></g><g><path fill="none" stroke="#000000" paint-order="fill stroke markers" d=" M 770 651 L 857.32080078125 651" stroke-miterlimit="10" stroke-dasharray=""/></g><g><path fill="none" stroke="#000000" paint-order="fill stroke markers" d=" M 770 661 L 857.32080078125 661" stroke-miterlimit="10" stroke-dasharray=""/></g><g><g><path fill="none" stroke="none"/><text fill="#000000" stroke="none" font-family="Arial" font-size="13px" font-style="normal" font-weight="bold" text-decoration="undefined" x="1044.160400390625" y="685.5" text-anchor="middle" dominant-baseline="central" transform="matrix(1 0 0 1 -230 -46)">OfferService</text></g></g><g><rect fill="#C0C0C0" stroke="none" x="1687" y="247" width="51.919921875" height="45" transform="matrix(1 0 0 1 -230 -46)" fill-opacity="0.2"/></g><g><rect fill="#ffffff" stroke="none" x="1680" y="240" width="51.919921875" height="45" transform="matrix(1 0 0 1 -230 -46)"/></g><g><path fill="none" stroke="#000000" paint-order="fill stroke markers" d=" M 1450 194 L 1501.919921875 194 L 1501.919921875 239 L 1450 239 L 1450 194 Z Z" stroke-miterlimit="10" stroke-dasharray=""/></g><g><path fill="none" stroke="#000000" paint-order="fill stroke markers" d=" M 1450 219 L 1501.919921875 219" stroke-miterlimit="10" stroke-dasharray=""/></g><g><path fill="none" stroke="#000000" paint-order="fill stroke markers" d=" M 1450 229 L 1501.919921875 229" stroke-miterlimit="10" stroke-dasharray=""/></g><g><g><path fill="none" stroke="none"/><text fill="#000000" stroke="none" font-family="Arial" font-size="13px" font-style="normal" font-weight="bold" text-decoration="undefined" x="1706.4599609375" y="253.5" text-anchor="middle" dominant-baseline="central" transform="matrix(1 0 0 1 -230 -46)">User</text></g></g><g><rect fill="#C0C0C0" stroke="none" x="1679" y="351" width="59.11181640625" height="45" transform="matrix(1 0 0 1 -230 -46)" fill-opacity="0.2"/></g><g><rect fill="#ffffff" stroke="none" x="1672" y="344" width="59.11181640625" height="45" transform="matrix(1 0 0 1 -230 -46)"/></g><g><path fill="none" stroke="#000000" paint-order="fill stroke markers" d=" M 1442 298 L 1501.11181640625 298 L 1501.11181640625 343 L 1442 343 L 1442 298 Z Z" stroke-miterlimit="10" stroke-dasharray=""/></g><g><path fill="none" stroke="#000000" paint-order="fill stroke markers" d=" M 1442 323 L 1501.11181640625 323" stroke-miterlimit="10" stroke-dasharray=""/></g><g><path fill="none" stroke="#000000" paint-order="fill stroke markers" d=" M 1442 333 L 1501.11181640625 333" stroke-miterlimit="10" stroke-dasharray=""/></g><g><g><path fill="none" stroke="none"/><text fill="#000000" stroke="none" font-family="Arial" font-size="13px" font-style="normal" font-weight="bold" text-decoration="undefined" x="1702.055908203125" y="357.5" text-anchor="middle" dominant-baseline="central" transform="matrix(1 0 0 1 -230 -46)">Product</text></g></g><g><rect fill="#C0C0C0" stroke="none" x="1663" y="471" width="82.96630859375" height="45" transform="matrix(1 0 0 1 -230 -46)" fill-opacity="0.2"/></g><g><rect fill="#ffffff" stroke="none" x="1656" y="464" width="82.96630859375" height="45" transform="matrix(1 0 0 1 -230 -46)"/></g><g><path fill="none" stroke="#000000" paint-order="fill stroke markers" d=" M 1426 418 L 1508.96630859375 418 L 1508.96630859375 463 L 1426 463 L 1426 418 Z Z" stroke-miterlimit="10" stroke-dasharray=""/></g><g><path fill="none" stroke="#000000" paint-order="fill stroke markers" d=" M 1426 443 L 1508.96630859375 443" stroke-miterlimit="10" stroke-dasharray=""/></g><g><path fill="none" stroke="#000000" paint-order="fill stroke markers" d=" M 1426 453 L 1508.96630859375 453" stroke-miterlimit="10" stroke-dasharray=""/></g><g><g><path fill="none" stroke="none"/><text fill="#000000" stroke="none" font-family="Arial" font-size="13px" font-style="normal" font-weight="bold" text-decoration="undefined" x="1697.983154296875" y="477.5" text-anchor="middle" dominant-baseline="central" transform="matrix(1 0 0 1 -230 -46)">Transaction</text></g></g><g><rect fill="#C0C0C0" stroke="none" x="1679" y="583" width="51.919921875" height="45" transform="matrix(1 0 0 1 -230 -46)" fill-opacity="0.2"/></g><g><rect fill="#ffffff" stroke="none" x="1672" y="576" width="51.919921875" height="45" transform="matrix(1 0 0 1 -230 -46)"/></g><g><path fill="none" stroke="#000000" paint-order="fill stroke markers" d=" M 1442 530 L 1493.919921875 530 L 1493.919921875 575 L 1442 575 L 1442 530 Z Z" stroke-miterlimit="10" stroke-dasharray=""/></g><g><path fill="none" stroke="#000000" paint-order="fill stroke markers" d=" M 1442 555 L 1493.919921875 555" stroke-miterlimit="10" stroke-dasharray=""/></g><g><path fill="none" stroke="#000000" paint-order="fill stroke markers" d=" M 1442 565 L 1493.919921875 565" stroke-miterlimit="10" stroke-dasharray=""/></g><g><g><path fill="none" stroke="none"/><text fill="#000000" stroke="none" font-family="Arial" font-size="13px" font-style="normal" font-weight="bold" text-decoration="undefined" x="1698.4599609375" y="589.5" text-anchor="middle" dominant-baseline="central" transform="matrix(1 0 0 1 -230 -46)">Rating</text></g></g><g><rect fill="#C0C0C0" stroke="none" x="1679" y="679" width="51.919921875" height="45" transform="matrix(1 0 0 1 -230 -46)" fill-opacity="0.2"/></g><g><rect fill="#ffffff" stroke="none" x="1672" y="672" width="51.919921875" height="45" transform="matrix(1 0 0 1 -230 -46)"/></g><g><path fill="none" stroke="#000000" paint-order="fill stroke markers" d=" M 1442 626 L 1493.919921875 626 L 1493.919921875 671 L 1442 671 L 1442 626 Z Z" stroke-miterlimit="10" stroke-dasharray=""/></g><g><path fill="none" stroke="#000000" paint-order="fill stroke markers" d=" M 1442 651 L 1493.919921875 651" stroke-miterlimit="10" stroke-dasharray=""/></g><g><path fill="none" stroke="#000000" paint-order="fill stroke markers" d=" M 1442 661 L 1493.919921875 661" stroke-miterlimit="10" stroke-dasharray=""/></g><g><g><path fill="none" stroke="none"/><text fill="#000000" stroke="none" font-family="Arial" font-size="13px" font-style="normal" font-weight="bold" text-decoration="undefined" x="1698.4599609375" y="685.5" text-anchor="middle" dominant-baseline="central" transform="matrix(1 0 0 1 -230 -46)">Offer</text></g></g><g><path fill="none" stroke="#000000" paint-order="fill stroke markers" d=" M 1442 648 L 1271 648" stroke-miterlimit="10" stroke-dasharray=""/></g><g><path fill="none" stroke="#000000" paint-order="fill stroke markers" d=" M 1281.162674857624 643.790482243984 L 1271 648 L 1281.162674857624 652.209517756016" stroke-miterlimit="10" stroke-dasharray=""/></g><g><path fill="none" stroke="#000000" paint-order="fill stroke markers" d=" M 1442 552 L 1264 552" stroke-miterlimit="10" stroke-dasharray=""/></g><g><path fill="none" stroke="#000000" paint-order="fill stroke markers" d=" M 1274.162674857624 547.790482243984 L 1264 552 L 1274.162674857624 556.209517756016" stroke-miterlimit="10" stroke-dasharray=""/></g><g><path fill="none" stroke="#000000" paint-order="fill stroke markers" d=" M 1426 450 L 1281 450" stroke-miterlimit="10" stroke-dasharray=""/></g><g><path fill="none" stroke="#000000" paint-order="fill stroke markers" d=" M 1291.162674857624 445.790482243984 L 1281 450 L 1291.162674857624 454.209517756016" stroke-miterlimit="10" stroke-dasharray=""/></g><g><path fill="none" stroke="#000000" paint-order="fill stroke markers" d=" M 1442 320 L 1273 320" stroke-miterlimit="10" stroke-dasharray=""/></g><g><path fill="none" stroke="#000000" paint-order="fill stroke markers" d=" M 1283.162674857624 315.790482243984 L 1273 320 L 1283.162674857624 324.209517756016" stroke-miterlimit="10" stroke-dasharray=""/></g><g><path fill="none" stroke="#000000" paint-order="fill stroke markers" d=" M 1450 216 L 1261 216" stroke-miterlimit="10" stroke-dasharray=""/></g><g><path fill="none" stroke="#000000" paint-order="fill stroke markers" d=" M 1271.162674857624 211.790482243984 L 1261 216 L 1271.162674857624 220.209517756016" stroke-miterlimit="10" stroke-dasharray=""/></g><g><path fill="none" stroke="#000000" paint-order="fill stroke markers" d=" M 855 226 L 1154 226" stroke-miterlimit="10" stroke-dasharray=""/></g><g><path fill="none" stroke="#000000" paint-order="fill stroke markers" d=" M 1143.837325142376 230.209517756016 L 1154 226 L 1143.837325142376 221.790482243984" stroke-miterlimit="10" stroke-dasharray=""/></g><g><path fill="none" stroke="#000000" paint-order="fill stroke markers" d=" M 867 320 L 1146 320" stroke-miterlimit="10" stroke-dasharray=""/></g><g><path fill="none" stroke="#000000" paint-order="fill stroke markers" d=" M 1135.837325142376 324.209517756016 L 1146 320 L 1135.837325142376 315.790482243984" stroke-miterlimit="10" stroke-dasharray=""/></g><g><path fill="none" stroke="#000000" paint-order="fill stroke markers" d=" M 883 434 L 1130 434" stroke-miterlimit="10" stroke-dasharray=""/></g><g><path fill="none" stroke="#000000" paint-order="fill stroke markers" d=" M 1119.837325142376 438.209517756016 L 1130 434 L 1119.837325142376 429.790482243984" stroke-miterlimit="10" stroke-dasharray=""/></g><g><path fill="none" stroke="#000000" paint-order="fill stroke markers" d=" M 859 552 L 1146 552" stroke-miterlimit="10" stroke-dasharray=""/></g><g><path fill="none" stroke="#000000" paint-order="fill stroke markers" d=" M 1135.837325142376 556.209517756016 L 1146 552 L 1135.837325142376 547.790482243984" stroke-miterlimit="10" stroke-dasharray=""/></g><g><path fill="none" stroke="#000000" paint-order="fill stroke markers" d=" M 857 648 L 1162 648" stroke-miterlimit="10" stroke-dasharray=""/></g><g><path fill="none" stroke="#000000" paint-order="fill stroke markers" d=" M 1151.837325142376 652.209517756016 L 1162 648 L 1151.837325142376 643.790482243984" stroke-miterlimit="10" stroke-dasharray=""/></g><g><rect fill="#C0C0C0" stroke="none" x="967" y="807" width="125.603515625" height="45" transform="matrix(1 0 0 1 -230 -46)" fill-opacity="0.2"/></g><g><rect fill="#FB7575" stroke="none" x="960" y="800" width="125.603515625" height="45" transform="matrix(1 0 0 1 -230 -46)"/></g><g><path fill="none" stroke="#000000" paint-order="fill stroke markers" d=" M 730 754 L 855.603515625 754 L 855.603515625 799 L 730 799 L 730 754 Z Z" stroke-miterlimit="10" stroke-dasharray=""/></g><g><path fill="none" stroke="#000000" paint-order="fill stroke markers" d=" M 730 779 L 855.603515625 779" stroke-miterlimit="10" stroke-dasharray=""/></g><g><path fill="none" stroke="#000000" paint-order="fill stroke markers" d=" M 730 789 L 855.603515625 789" stroke-miterlimit="10" stroke-dasharray=""/></g><g><g><path fill="none" stroke="none"/><text fill="#000000" stroke="none" font-family="Arial" font-size="13px" font-style="normal" font-weight="bold" text-decoration="undefined" x="1023.3017578125" y="813.5" text-anchor="middle" dominant-baseline="central" transform="matrix(1 0 0 1 -230 -46)">DataBaseInitializer</text></g></g><g><path fill="none" stroke="#000000" paint-order="fill stroke markers" d=" M 856 776 L 1058 776 L 1058 239 L 1154 239" stroke-miterlimit="10" stroke-dasharray=""/></g><g><path fill="none" stroke="#000000" paint-order="fill stroke markers" d=" M 1143.837325142376 243.209517756016 L 1154 239 L 1143.837325142376 234.790482243984" stroke-miterlimit="10" stroke-dasharray=""/></g><g><path fill="none" stroke="#000000" paint-order="fill stroke markers" d=" M 856 776 L 1058 776 L 1058 343 L 1146 343" stroke-miterlimit="10" stroke-dasharray=""/></g><g><path fill="none" stroke="#000000" paint-order="fill stroke markers" d=" M 1135.837325142376 347.209517756016 L 1146 343 L 1135.837325142376 338.790482243984" stroke-miterlimit="10" stroke-dasharray=""/></g><g><path fill="none" stroke="#000000" paint-order="fill stroke markers" d=" M 856 778 L 1058 778 L 1058 447 L 1130 447" stroke-miterlimit="10" stroke-dasharray=""/></g><g><path fill="none" stroke="#000000" paint-order="fill stroke markers" d=" M 1119.837325142376 451.209517756016 L 1130 447 L 1119.837325142376 442.790482243984" stroke-miterlimit="10" stroke-dasharray=""/></g><g><path fill="none" stroke="#000000" paint-order="fill stroke markers" d=" M 856 776 L 1058 776 L 1058 575 L 1146 575" stroke-miterlimit="10" stroke-dasharray=""/></g><g><path fill="none" stroke="#000000" paint-order="fill stroke markers" d=" M 1135.837325142376 579.209517756016 L 1146 575 L 1135.837325142376 570.790482243984" stroke-miterlimit="10" stroke-dasharray=""/></g><g><path fill="none" stroke="#000000" paint-order="fill stroke markers" d=" M 856 776 L 1058 776 L 1058 671 L 1162 671" stroke-miterlimit="10" stroke-dasharray=""/></g><g><path fill="none" stroke="#000000" paint-order="fill stroke markers" d=" M 1151.837325142376 675.209517756016 L 1162 671 L 1151.837325142376 666.790482243984" stroke-miterlimit="10" stroke-dasharray=""/></g><g><path fill="none" stroke="#000000" paint-order="fill stroke markers" d=" M 418 216 L 214 216" stroke-miterlimit="10" stroke-dasharray=""/></g><g><path fill="none" stroke="#000000" paint-order="fill stroke markers" d=" M 224.16267485762415 211.790482243984 L 214 216 L 224.16267485762415 220.209517756016" stroke-miterlimit="10" stroke-dasharray=""/></g><g><path fill="none" stroke="#000000" paint-order="fill stroke markers" d=" M 442 384 L 214 384" stroke-miterlimit="10" stroke-dasharray=""/></g><g><path fill="none" stroke="#000000" paint-order="fill stroke markers" d=" M 224.16267485762415 379.790482243984 L 214 384 L 224.16267485762415 388.209517756016" stroke-miterlimit="10" stroke-dasharray=""/></g><g><path fill="none" stroke="#000000" paint-order="fill stroke markers" d=" M 426 520 L 214 520" stroke-miterlimit="10" stroke-dasharray=""/></g><g><path fill="none" stroke="#000000" paint-order="fill stroke markers" d=" M 224.16267485762415 515.790482243984 L 214 520 L 224.16267485762415 524.209517756016" stroke-miterlimit="10" stroke-dasharray=""/></g><g><path fill="none" stroke="#000000" paint-order="fill stroke markers" d=" M 525 208 L 770 208" stroke-miterlimit="10" stroke-dasharray=""/></g><g><path fill="none" stroke="#000000" paint-order="fill stroke markers" d=" M 759.8373251423759 212.209517756016 L 770 208 L 759.8373251423758 203.790482243984" stroke-miterlimit="10" stroke-dasharray=""/></g><g><path fill="none" stroke="#000000" paint-order="fill stroke markers" d=" M 543 386 L 682 386 L 682 226 L 770 226" stroke-miterlimit="10" stroke-dasharray=""/></g><g><path fill="none" stroke="#000000" paint-order="fill stroke markers" d=" M 759.8373251423759 230.209517756016 L 770 226 L 759.8373251423758 221.790482243984" stroke-miterlimit="10" stroke-dasharray=""/></g><g><path fill="none" stroke="#000000" paint-order="fill stroke markers" d=" M 543 386 L 682 386 L 682 314 L 762 314" stroke-miterlimit="10" stroke-dasharray=""/></g><g><path fill="none" stroke="#000000" paint-order="fill stroke markers" d=" M 751.8373251423759 318.209517756016 L 762 314 L 751.8373251423758 309.790482243984" stroke-miterlimit="10" stroke-dasharray=""/></g><g><path fill="none" stroke="#000000" paint-order="fill stroke markers" d=" M 543 386 L 682 386 L 682 426 L 754 426" stroke-miterlimit="10" stroke-dasharray=""/></g><g><path fill="none" stroke="#000000" paint-order="fill stroke markers" d=" M 743.8373251423759 430.209517756016 L 754 426 L 743.8373251423758 421.790482243984" stroke-miterlimit="10" stroke-dasharray=""/></g><g><path fill="none" stroke="#000000" paint-order="fill stroke markers" d=" M 543 386 L 682 386 L 682 562 L 762 562" stroke-miterlimit="10" stroke-dasharray=""/></g><g><path fill="none" stroke="#000000" paint-order="fill stroke markers" d=" M 751.8373251423759 566.209517756016 L 762 562 L 751.8373251423758 557.790482243984" stroke-miterlimit="10" stroke-dasharray=""/></g><g><path fill="none" stroke="#000000" paint-order="fill stroke markers" d=" M 547 520 L 626 520 L 626 239 L 770 239" stroke-miterlimit="10" stroke-dasharray=""/></g><g><path fill="none" stroke="#000000" paint-order="fill stroke markers" d=" M 759.8373251423759 243.209517756016 L 770 239 L 759.8373251423758 234.790482243984" stroke-miterlimit="10" stroke-dasharray=""/></g><g><path fill="none" stroke="#000000" paint-order="fill stroke markers" d=" M 547 522 L 626 522 L 626 330 L 762 330" stroke-miterlimit="10" stroke-dasharray=""/></g><g><path fill="none" stroke="#000000" paint-order="fill stroke markers" d=" M 751.8373251423759 334.209517756016 L 762 330 L 751.8373251423758 325.790482243984" stroke-miterlimit="10" stroke-dasharray=""/></g><g><path fill="none" stroke="#000000" paint-order="fill stroke markers" d=" M 547 522 L 626 522 L 626 450 L 754 450" stroke-miterlimit="10" stroke-dasharray=""/></g><g><path fill="none" stroke="#000000" paint-order="fill stroke markers" d=" M 743.8373251423759 454.209517756016 L 754 450 L 743.8373251423758 445.790482243984" stroke-miterlimit="10" stroke-dasharray=""/></g><g><path fill="none" stroke="#000000" paint-order="fill stroke markers" d=" M 547 522 L 626 522 L 626 642 L 770 642" stroke-miterlimit="10" stroke-dasharray=""/></g><g><path fill="none" stroke="#000000" paint-order="fill stroke markers" d=" M 759.8373251423759 646.209517756016 L 770 642 L 759.8373251423758 637.790482243984" stroke-miterlimit="10" stroke-dasharray=""/></g><g><path fill="none" stroke="#000000" paint-order="fill stroke markers" d=" M 1494 554 L 1634 554 L 1634 202 L 1502 202" stroke-miterlimit="10" stroke-dasharray=""/></g><g><path fill="#000000" stroke="none" paint-order="stroke fill markers" d=" M 1512.162674857624 197.790482243984 L 1502 202 L 1512.162674857624 206.209517756016 L 1524 202"/></g><g><path fill="none" stroke="#000000" paint-order="fill stroke markers" d=" M 1512.162674857624 197.790482243984 L 1502 202 L 1512.162674857624 206.209517756016 L 1524 202 L 1512.162674857624 197.790482243984" stroke-miterlimit="10" stroke-dasharray=""/></g><g><path fill="none" stroke="#000000" paint-order="fill stroke markers" d=" M 1470 418 L 1470 343" stroke-miterlimit="10" stroke-dasharray=""/></g><g><path fill="#000000" stroke="none" paint-order="stroke fill markers" d=" M 1474.2095177560159 353.16267485762415 L 1470 343 L 1465.7904822439841 353.16267485762415 L 1470 365"/></g><g><path fill="none" stroke="#000000" paint-order="fill stroke markers" d=" M 1474.2095177560159 353.16267485762415 L 1470 343 L 1465.7904822439841 353.16267485762415 L 1470 365 L 1474.2095177560159 353.16267485762415" stroke-miterlimit="10" stroke-dasharray=""/></g><g><path fill="none" stroke="#000000" paint-order="fill stroke markers" d=" M 1474 298 L 1474 239" stroke-miterlimit="10" stroke-dasharray=""/></g><g><path fill="#FFFFFF" stroke="none" paint-order="stroke fill markers" d=" M 1478.2095177560159 249.16267485762415 L 1474 239 L 1469.7904822439841 249.16267485762415 L 1474 261"/></g><g><path fill="none" stroke="#000000" paint-order="fill stroke markers" d=" M 1478.2095177560159 249.16267485762415 L 1474 239 L 1469.7904822439841 249.16267485762415 L 1474 261 L 1478.2095177560159 249.16267485762415" stroke-miterlimit="10" stroke-dasharray=""/></g><g><path fill="none" stroke="#000000" paint-order="fill stroke markers" d=" M 1494 650 L 1594 650 L 1594 218 L 1502 218" stroke-miterlimit="10" stroke-dasharray=""/></g><g><path fill="#FFFFFF" stroke="none" paint-order="stroke fill markers" d=" M 1512.162674857624 213.790482243984 L 1502 218 L 1512.162674857624 222.209517756016 L 1524 218"/></g><g><path fill="none" stroke="#000000" paint-order="fill stroke markers" d=" M 1512.162674857624 213.790482243984 L 1502 218 L 1512.162674857624 222.209517756016 L 1524 218 L 1512.162674857624 213.790482243984" stroke-miterlimit="10" stroke-dasharray=""/></g><g><path fill="none" stroke="#000000" paint-order="fill stroke markers" d=" M 1494 650 L 1570 650 L 1570 306 L 1501 306" stroke-miterlimit="10" stroke-dasharray=""/></g><g><path fill="#000000" stroke="none" paint-order="stroke fill markers" d=" M 1511.162674857624 301.790482243984 L 1501 306 L 1511.162674857624 310.209517756016 L 1523 306"/></g><g><path fill="none" stroke="#000000" paint-order="fill stroke markers" d=" M 1511.162674857624 301.790482243984 L 1501 306 L 1511.162674857624 310.209517756016 L 1523 306 L 1511.162674857624 301.790482243984" stroke-miterlimit="10" stroke-dasharray=""/></g><g><rect fill="#C0C0C0" stroke="none" x="967" y="71" width="146.50634765625" height="45" transform="matrix(1 0 0 1 -230 -46)" fill-opacity="0.2"/></g><g><rect fill="#807F7F" stroke="none" x="960" y="64" width="146.50634765625" height="45" transform="matrix(1 0 0 1 -230 -46)"/></g><g><path fill="none" stroke="#000000" paint-order="fill stroke markers" d=" M 730 18 L 876.50634765625 18 L 876.50634765625 63 L 730 63 L 730 18 Z Z" stroke-miterlimit="10" stroke-dasharray=""/></g><g><path fill="none" stroke="#000000" paint-order="fill stroke markers" d=" M 730 43 L 876.50634765625 43" stroke-miterlimit="10" stroke-dasharray=""/></g><g><path fill="none" stroke="#000000" paint-order="fill stroke markers" d=" M 730 53 L 876.50634765625 53" stroke-miterlimit="10" stroke-dasharray=""/></g><g><g><path fill="none" stroke="none"/><text fill="#000000" stroke="none" font-family="Arial" font-size="13px" font-style="normal" font-weight="bold" text-decoration="undefined" x="1033.753173828125" y="77.5" text-anchor="middle" dominant-baseline="central" transform="matrix(1 0 0 1 -230 -46)">SecurityConfiguration</text></g></g><g><path fill="none" stroke="#000000" paint-order="fill stroke markers" d=" M 877 40 L 1074 40 L 1074 202 L 1154 202" stroke-miterlimit="10" stroke-dasharray=""/></g><g><path fill="none" stroke="#000000" paint-order="fill stroke markers" d=" M 1143.837325142376 206.209517756016 L 1154 202 L 1143.837325142376 197.790482243984" stroke-miterlimit="10" stroke-dasharray=""/></g><g><rect fill="#C0C0C0" stroke="none" x="951" y="159" width="195.70068359375" height="45" transform="matrix(1 0 0 1 -230 -46)" fill-opacity="0.2"/></g><g><rect fill="#FB7575" stroke="none" x="944" y="152" width="195.70068359375" height="45" transform="matrix(1 0 0 1 -230 -46)"/></g><g><path fill="none" stroke="#000000" paint-order="fill stroke markers" d=" M 714 106 L 909.70068359375 106 L 909.70068359375 151 L 714 151 L 714 106 Z Z" stroke-miterlimit="10" stroke-dasharray=""/></g><g><path fill="none" stroke="#000000" paint-order="fill stroke markers" d=" M 714 131 L 909.70068359375 131" stroke-miterlimit="10" stroke-dasharray=""/></g><g><path fill="none" stroke="#000000" paint-order="fill stroke markers" d=" M 714 141 L 909.70068359375 141" stroke-miterlimit="10" stroke-dasharray=""/></g><g><g><path fill="none" stroke="none"/><text fill="#000000" stroke="none" font-family="Arial" font-size="13px" font-style="normal" font-weight="bold" text-decoration="undefined" x="1042.350341796875" y="165.5" text-anchor="middle" dominant-baseline="central" transform="matrix(1 0 0 1 -230 -46)">RepositoryUserDetailsService</text></g></g><g><path fill="none" stroke="#000000" paint-order="fill stroke markers" d=" M 803 63 L 803 106" stroke-miterlimit="10" stroke-dasharray=""/></g><g><path fill="none" stroke="#000000" paint-order="fill stroke markers" d=" M 798.7904822439841 95.83732514237585 L 803 106 L 807.2095177560159 95.83732514237585" stroke-miterlimit="10" stroke-dasharray=""/></g><g><path fill="none" stroke="#000000" paint-order="fill stroke markers" d=" M 910 122 L 1074 122 L 1074 210 L 1154 210" stroke-miterlimit="10" stroke-dasharray=""/></g><g><path fill="none" stroke="#000000" paint-order="fill stroke markers" d=" M 1143.837325142376 214.209517756016 L 1154 210 L 1143.837325142376 205.790482243984" stroke-miterlimit="10" stroke-dasharray=""/></g><g><g><path fill="none" stroke="none"/><text fill="#FA6CFA" stroke="none" font-family="Arial" font-size="13px" font-style="normal" font-weight="normal" text-decoration="undefined" x="301" y="237" text-anchor="start" dominant-baseline="text-before-edge" transform="matrix(1 0 0 1 -230 -46)">header.html</text></g></g><g><g><path fill="none" stroke="none"/><text fill="#FA6CFA" stroke="none" font-family="Arial" font-size="13px" font-style="normal" font-weight="normal" text-decoration="undefined" x="301" y="252" text-anchor="start" dominant-baseline="text-before-edge" transform="matrix(1 0 0 1 -230 -46)">footer.html</text></g></g><g><g><path fill="none" stroke="none"/><text fill="#FA6CFA" stroke="none" font-family="Arial" font-size="13px" font-style="normal" font-weight="normal" text-decoration="undefined" x="301" y="267" text-anchor="start" dominant-baseline="text-before-edge" transform="matrix(1 0 0 1 -230 -46)">index.html</text></g></g><g><g><path fill="none" stroke="none"/><text fill="#FA6CFA" stroke="none" font-family="Arial" font-size="13px" font-style="normal" font-weight="normal" text-decoration="undefined" x="301" y="282" text-anchor="start" dominant-baseline="text-before-edge" transform="matrix(1 0 0 1 -230 -46)">login.html</text></g></g><g><rect fill="#C0C0C0" stroke="none" x="663" y="63" width="178.99365234375" height="45" transform="matrix(1 0 0 1 -230 -46)" fill-opacity="0.2"/></g><g><rect fill="#807F7F" stroke="none" x="656" y="56" width="178.99365234375" height="45" transform="matrix(1 0 0 1 -230 -46)"/></g><g><path fill="none" stroke="#000000" paint-order="fill stroke markers" d=" M 426 10 L 604.99365234375 10 L 604.99365234375 55 L 426 55 L 426 10 Z Z" stroke-miterlimit="10" stroke-dasharray=""/></g><g><path fill="none" stroke="#000000" paint-order="fill stroke markers" d=" M 426 35 L 604.99365234375 35" stroke-miterlimit="10" stroke-dasharray=""/></g><g><path fill="none" stroke="#000000" paint-order="fill stroke markers" d=" M 426 45 L 604.99365234375 45" stroke-miterlimit="10" stroke-dasharray=""/></g><g><g><path fill="none" stroke="none"/><text fill="#000000" stroke="none" font-family="Arial" font-size="13px" font-style="normal" font-weight="bold" text-decoration="undefined" x="745.996826171875" y="69.5" text-anchor="middle" dominant-baseline="central" transform="matrix(1 0 0 1 -230 -46)">CSRFHandlerConfiguration</text></g></g><g><g><path fill="none" stroke="none"/><text fill="#FA6CFA" stroke="none" font-family="Arial" font-size="13px" font-style="normal" font-weight="normal" text-decoration="undefined" x="245" y="373" text-anchor="start" dominant-baseline="text-before-edge" transform="matrix(1 0 0 1 -230 -46)">header.html</text></g></g><g><g><path fill="none" stroke="none"/><text fill="#FA6CFA" stroke="none" font-family="Arial" font-size="13px" font-style="normal" font-weight="normal" text-decoration="undefined" x="245" y="388" text-anchor="start" dominant-baseline="text-before-edge" transform="matrix(1 0 0 1 -230 -46)">footer.html</text></g></g><g><g><path fill="none" stroke="none"/><text fill="#FA6CFA" stroke="none" font-family="Arial" font-size="13px" font-style="normal" font-weight="normal" text-decoration="undefined" x="245" y="403" text-anchor="start" dominant-baseline="text-before-edge" transform="matrix(1 0 0 1 -230 -46)">index.html</text></g></g><g><g><path fill="none" stroke="none"/><text fill="#FA6CFA" stroke="none" font-family="Arial" font-size="13px" font-style="normal" font-weight="normal" text-decoration="undefined" x="245" y="418" text-anchor="start" dominant-baseline="text-before-edge" transform="matrix(1 0 0 1 -230 -46)">product.html</text></g></g><g><g><path fill="none" stroke="none"/><text fill="#FA6CFA" stroke="none" font-family="Arial" font-size="13px" font-style="normal" font-weight="normal" text-decoration="undefined" x="245" y="433" text-anchor="start" dominant-baseline="text-before-edge" transform="matrix(1 0 0 1 -230 -46)">producto_template.html</text></g></g><g><g><path fill="none" stroke="none"/><text fill="#FA6CFA" stroke="none" font-family="Arial" font-size="13px" font-style="normal" font-weight="normal" text-decoration="undefined" x="245" y="448" text-anchor="start" dominant-baseline="text-before-edge" transform="matrix(1 0 0 1 -230 -46)">product.html</text></g></g><g><g><path fill="none" stroke="none"/><text fill="#FA6CFA" stroke="none" font-family="Arial" font-size="13px" font-style="normal" font-weight="normal" text-decoration="undefined" x="245" y="463" text-anchor="start" dominant-baseline="text-before-edge" transform="matrix(1 0 0 1 -230 -46)">errorPage.html</text></g></g><g><g><path fill="none" stroke="none"/></g></g><g><g><path fill="none" stroke="none"/><text fill="#FA6CFA" stroke="none" font-family="Arial" font-size="13px" font-style="normal" font-weight="normal" text-decoration="undefined" x="245" y="525" text-anchor="start" dominant-baseline="text-before-edge" transform="matrix(1 0 0 1 -230 -46)">header.html</text></g></g><g><g><path fill="none" stroke="none"/><text fill="#FA6CFA" stroke="none" font-family="Arial" font-size="13px" font-style="normal" font-weight="normal" text-decoration="undefined" x="245" y="540" text-anchor="start" dominant-baseline="text-before-edge" transform="matrix(1 0 0 1 -230 -46)">footer.html</text></g></g><g><g><path fill="none" stroke="none"/><text fill="#FA6CFA" stroke="none" font-family="Arial" font-size="13px" font-style="normal" font-weight="normal" text-decoration="undefined" x="245" y="555" text-anchor="start" dominant-baseline="text-before-edge" transform="matrix(1 0 0 1 -230 -46)">profile.html</text></g></g><g><g><path fill="none" stroke="none"/><text fill="#FA6CFA" stroke="none" font-family="Arial" font-size="13px" font-style="normal" font-weight="normal" text-decoration="undefined" x="245" y="570" text-anchor="start" dominant-baseline="text-before-edge" transform="matrix(1 0 0 1 -230 -46)">bannedProfile.html</text></g></g><g><g><path fill="none" stroke="none"/><text fill="#FA6CFA" stroke="none" font-family="Arial" font-size="13px" font-style="normal" font-weight="normal" text-decoration="undefined" x="245" y="585" text-anchor="start" dominant-baseline="text-before-edge" transform="matrix(1 0 0 1 -230 -46)">producto_template.html</text></g></g><g><g><path fill="none" stroke="none"/><text fill="#FA6CFA" stroke="none" font-family="Arial" font-size="13px" font-style="normal" font-weight="normal" text-decoration="undefined" x="245" y="600" text-anchor="start" dominant-baseline="text-before-edge" transform="matrix(1 0 0 1 -230 -46)">YourProducts.html</text></g></g><g><g><path fill="none" stroke="none"/><text fill="#FA6CFA" stroke="none" font-family="Arial" font-size="13px" font-style="normal" font-weight="normal" text-decoration="undefined" x="245" y="615" text-anchor="start" dominant-baseline="text-before-edge" transform="matrix(1 0 0 1 -230 -46)">YourWinningBids.html</text></g></g><g><g><path fill="none" stroke="none"/><text fill="#FA6CFA" stroke="none" font-family="Arial" font-size="13px" font-style="normal" font-weight="normal" text-decoration="undefined" x="245" y="630" text-anchor="start" dominant-baseline="text-before-edge" transform="matrix(1 0 0 1 -230 -46)">ratingProduct.html</text></g></g><g><g><path fill="none" stroke="none"/><text fill="#FA6CFA" stroke="none" font-family="Arial" font-size="13px" font-style="normal" font-weight="normal" text-decoration="undefined" x="245" y="645" text-anchor="start" dominant-baseline="text-before-edge" transform="matrix(1 0 0 1 -230 -46)">productRated.html</text></g></g><g><g><path fill="none" stroke="none"/><text fill="#FA6CFA" stroke="none" font-family="Arial" font-size="13px" font-style="normal" font-weight="normal" text-decoration="undefined" x="245" y="660" text-anchor="start" dominant-baseline="text-before-edge" transform="matrix(1 0 0 1 -230 -46)">errorPage.html</text></g></g><g><path fill="none" stroke="#000000" paint-order="fill stroke markers" d=" M 1426 442 L 1386 442 L 1386 226 L 1450 226" stroke-miterlimit="10" stroke-dasharray=""/></g><g><path fill="none" stroke="#000000" paint-order="fill stroke markers" d=" M 1439.837325142376 230.209517756016 L 1450 226 L 1439.837325142376 221.790482243984" stroke-miterlimit="10" stroke-dasharray=""/></g><g><path fill="none" stroke="#000000" paint-order="fill stroke markers" d=" M 1442 538 L 1354 538 L 1354 330 L 1442 330" stroke-miterlimit="10" stroke-dasharray=""/></g><g><path fill="none" stroke="#000000" paint-order="fill stroke markers" d=" M 1431.837325142376 334.209517756016 L 1442 330 L 1431.837325142376 325.790482243984" stroke-miterlimit="10" stroke-dasharray=""/></g></g></svg>